# xmcd CD database file
#
# Track frame offsets:
#	150
#	32873
#	60963
#	87508
#	107620
#	119555
#	134723
#	157590
#
# Disc length: 2553 seconds
#
# Revision: 0
# Processed by: cddbd v1.5.1PL0 Copyright (c) Steve Scherf et al.
# Submitted via: CDex 1.51
#
DISCID=6409f708
DTITLE=Graham Haynes and No Image - What Time it be!
DYEAR=1990
DGENRE=Jazz
TTITLE0=Short
TTITLE1=D's Vamp
TTITLE2=Sweet and Lovely
TTITLE3=Blackfoot Stomp
TTITLE4=Marrakech
TTITLE5=Vera Moves
TTITLE6=White Bikini
TTITLE7=Heart of Quiet Resignation
EXTD=YEAR: 1990
EXTT0=
EXTT1=
EXTT2=
EXTT3=
EXTT4=
EXTT5=
EXTT6=
EXTT7=
PLAYORDER=
